<?xml version="1.0" encoding="UTF-8" standalone="no"?>
<!-- Created with Inkscape (http://www.inkscape.org/) -->

<svg
   version="1.1"
   id="svg2"
   width="11.123cm"
   height="5.454cm"
   viewBox="0 0 420.39685 206.13543"
   xmlns="http://www.w3.org/2000/svg"
   xmlns:svg="http://www.w3.org/2000/svg">
  <defs
     id="defs6">
    <linearGradient
       x1="0"
       y1="0"
       x2="1"
       y2="0"
       gradientUnits="userSpaceOnUse"
       gradientTransform="matrix(-4.02e-6,-91.8907,-91.8907,4.02e-6,85.8809,161.434)"
       spreadMethod="pad"
       id="linearGradient44">
      <stop
         style="stop-opacity:1;stop-color:#97d9f6"
         offset="0"
         id="stop36" />
      <stop
         style="stop-opacity:1;stop-color:#0f80cc"
         offset="0.66199914"
         id="stop38" />
      <stop
         style="stop-opacity:1;stop-color:#0f80cc"
         offset="0.920245"
         id="stop40" />
      <stop
         style="stop-opacity:1;stop-color:#0f80cc"
         offset="1"
         id="stop42" />
    </linearGradient>
    <clipPath
       clipPathUnits="userSpaceOnUse"
       id="clipPath196">
      <g
         id="g200">
        <path
           d="m 99.4055,99.7609 c 0.6725,-1.1629 3.5115,-6.1371 4.0815,-7.7398 0.642,-1.8121 0.777,-2.3313 0.777,-2.3313 0,0 -1.557,8.0114 -4.112,12.6862 0.56,1.89 1.229,3.979 1.986,6.212 0.885,-1.553 2.896,-5.12 3.623,-6.81 0.027,0.319 0.054,0.638 0.082,0.954 -0.644,2.475 -1.622,5.715 -2.874,8.254 3.214,16.725 13.559,38.625 24.704,50.448 H 50.9602 c -3.7883,0 -6.8711,-3.082 -6.8711,-6.871 V 73.1789 c 17.3738,6.668 38.323,12.7633 56.3529,12.502 -0.6693,2.5812 -1.4315,4.9152 -2.2318,6.2679 -0.4122,0.6981 0.0449,3.5653 1.1953,7.8121 z"
           id="path198"
           style="stroke-width:0.1" />
      </g>
    </clipPath>
  </defs>
  <g
     id="g10"
     transform="matrix(1.3333333,0,0,-1.3333333,0,281.73333)">
    <rect
       style="fill:#ffffff;stroke:#ffffff;stroke-width:0.708661;stroke-linecap:round;stroke-linejoin:round"
       id="rect358"
       width="314.4097"
       height="153.65753"
       x="0.45826015"
       y="-210.8121"
       transform="scale(1,-1)"
       ry="1.9313971"
       rx="0" />
    <g
       id="g211"
       transform="translate(-27.945133,27.801858)">
      <path
         d="m 103.096,71.5961 c -0.057,0.7219 -0.091,1.191 -0.091,1.191 0,0 -2.189,14.7578 -4.7948,19.1617 -0.4122,0.6981 0.0449,3.5653 1.1953,7.8121 0.6725,-1.1629 3.5115,-6.1371 4.0815,-7.7398 0.642,-1.8121 0.777,-2.3313 0.777,-2.3313 0,0 -1.557,8.0114 -4.112,12.6862 0.56,1.89 1.229,3.979 1.986,6.212 0.968,-1.698 3.285,-5.809 3.795,-7.235 0.103,-0.293 0.19,-0.542 0.268,-0.77 0.025,0.137 0.05,0.274 0.075,0.411 -0.585,2.482 -1.734,6.801 -3.307,9.992 3.49,18.165 15.393,42.445 27.596,53.278 H 50.9602 c -5.3352,0 -9.7004,-4.366 -9.7004,-9.701 V 66.7738 c 0,-5.3347 4.3652,-9.7 9.7004,-9.7 H 103.39 c -0.378,4.5762 -0.504,9.6391 -0.294,14.5223"
         style="fill:#0f80cc;fill-opacity:1;fill-rule:nonzero;stroke:none;stroke-width:0.1"
         id="path14" />
      <path
         d="m 161.875,106.023 h 1.346 V 94.8121 h -1.426 c -0.326,3.0988 -1.447,5.5179 -3.363,7.2579 -1.918,1.737 -4.328,2.608 -7.236,2.608 -2.584,0 -4.662,-0.653 -6.238,-1.957 -1.576,-1.303 -2.364,-3.0429 -2.364,-5.2179 0,-2.0109 0.652,-3.8453 1.957,-5.5019 1.303,-1.659 4.131,-3.7903 8.48,-6.4032 5.054,-3.016 8.451,-5.6492 10.19,-7.907 1.739,-2.2551 2.608,-4.8371 2.608,-7.7449 0,-3.75 -1.327,-6.957 -3.985,-9.6199 -2.662,-2.6641 -5.865,-3.9953 -9.608,-3.9953 -2.172,0 -4.939,0.598 -8.304,1.7953 -1.383,0.4886 -2.266,0.7308 -2.645,0.7308 -0.788,0 -1.397,-0.6101 -1.832,-1.834 h -1.427 v 12.9231 h 1.427 c 0.026,-3.5609 1.187,-6.4141 3.479,-8.5621 2.292,-2.1449 4.97,-3.218 8.034,-3.218 2.905,0 5.228,0.7719 6.98,2.3238 1.749,1.5512 2.624,3.6172 2.624,6.2024 0,1.9308 -0.72,3.7797 -2.157,5.5469 -1.436,1.7687 -4.443,4.0468 -9.015,6.8379 -3.726,2.3039 -6.214,4.1171 -7.463,5.4511 -1.249,1.3328 -2.172,2.7938 -2.769,4.386 -0.597,1.589 -0.896,3.3379 -0.896,5.2398 0,3.6699 1.204,6.6481 3.609,8.9331 2.405,2.283 5.537,3.425 9.395,3.425 2.12,0 4.431,-0.421 6.931,-1.263 1.167,-0.381 1.983,-0.571 2.444,-0.571 0.383,0 0.64,0.081 0.774,0.244 0.138,0.164 0.288,0.53 0.45,1.101"
         style="fill:#003b57;fill-opacity:1;fill-rule:nonzero;stroke:none;stroke-width:0.1"
         id="path16" />
      <path
         d="m 216.34,81.075 c 0,7.3121 -1.673,13.0719 -5.016,17.2852 -3.344,4.2118 -7.664,6.3178 -12.966,6.3178 -5.625,0 -10.114,-2.115 -13.47,-6.3382 -3.358,-4.2277 -5.033,-9.8726 -5.033,-16.9386 0,-6.8762 1.664,-12.4692 4.992,-16.7762 3.331,-4.307 7.671,-6.459 13.024,-6.459 5.572,0 10.042,2.0852 13.411,6.257 3.369,4.1731 5.058,9.7231 5.058,16.652 z M 224.653,44.3051 225.182,43 c -2.336,-1.0602 -4.985,-1.5898 -7.947,-1.5898 -2.446,0 -4.717,0.3207 -6.809,0.9578 -2.09,0.6398 -4.057,1.6172 -5.889,2.9359 -1.834,1.318 -4.071,3.5133 -6.707,6.582 -2.339,2.7192 -4.132,4.4063 -5.381,5.0571 -5.463,1.1121 -10.155,3.9961 -14.084,8.6402 -3.927,4.6469 -5.891,9.9488 -5.891,15.9 0,4.4297 1.128,8.6 3.383,12.5137 2.256,3.914 5.314,6.9781 9.176,9.1911 3.856,2.217 8.137,3.324 12.838,3.324 7.257,0 13.371,-2.413 18.346,-7.2358 4.971,-4.8223 7.457,-10.7551 7.457,-17.793 0,-5.9273 -1.914,-11.2023 -5.746,-15.8363 -3.833,-4.636 -8.739,-7.5367 -14.716,-8.7039 0.572,-0.4578 1.594,-1.6149 3.06,-3.4649 3.119,-3.8609 5.728,-6.4801 7.819,-7.8519 2.094,-1.3684 4.173,-2.0563 6.24,-2.0563 1.523,0 2.966,0.2461 4.322,0.7352"
         style="fill:#003b57;fill-opacity:1;fill-rule:nonzero;stroke:none;stroke-width:0.1"
         id="path18" />
      <path
         d="m 259.776,64.8309 -0.797,-7.6379 h -31.192 l 0.066,1.5199 c 1.691,0.173 2.876,0.607 3.567,1.3 0.69,0.698 1.039,2.2992 1.065,4.818 l 0.036,33.7453 c -0.012,1.7628 -0.098,2.9778 -0.244,3.6408 -0.392,1.853 -2.142,2.778 -5.272,2.778 l -0.067,1.517 h 16.282 l 0.062,-1.517 c -1.736,-0.118 -2.924,-0.586 -3.589,-1.408 -0.658,-0.825 -0.984,-2.496 -0.983,-5.0108 l -0.125,-34.0981 c 0.005,-0.5801 0.054,-1.1109 0.162,-1.6031 0.523,-2.4879 2.496,-3.7289 5.918,-3.7289 h 2.939 c 3.803,0 6.442,0.4277 7.931,1.282 1.485,0.8481 2.429,2.3188 2.836,4.4028 h 1.405"
         style="fill:#003b57;fill-opacity:1;fill-rule:nonzero;stroke:none;stroke-width:0.1"
         id="path20" />
      <path
         d="m 270.119,97.4219 c 0.736,0 1.414,-0.2578 2.04,-0.7758 0.619,-0.516 1.022,-1.1539 1.177,-1.9129 0.151,-0.7363 0.026,-1.375 -0.377,-1.9184 -0.403,-0.5429 -0.967,-0.8136 -1.703,-0.8136 -0.761,0 -1.47,0.2707 -2.126,0.8136 -0.66,0.5434 -1.064,1.1821 -1.214,1.9184 -0.155,0.759 -0.03,1.3969 0.414,1.9129 0.434,0.518 1.028,0.7758 1.789,0.7758 z m 4.982,-11.7008 -0.05,-21.3602 c 0.009,-1.4929 0.085,-2.5539 0.218,-3.1808 0.172,-0.8699 0.558,-1.459 1.137,-1.7711 0.589,-0.3141 1.903,-0.4711 3.942,-0.4711 l 0.047,-1.4258 H 265.72 l 0.035,1.4258 c 2.012,0 3.248,0.1859 3.719,0.5519 0.467,0.3653 0.707,1.5961 0.733,3.6891 l 0.092,15.1231 c -0.017,0.825 -0.069,1.4699 -0.166,1.9378 -0.288,1.3981 -1.21,2.0993 -2.76,2.0993 l -3.184,-0.4071 -0.015,1.6711 9.25,2.118 h 1.677"
         style="fill:#003b57;fill-opacity:1;fill-rule:nonzero;stroke:none;stroke-width:0.1"
         id="path22" />
      <path
         d="m 299.717,84.9891 0.07,-2.2821 h -7.669 l -0.055,-19.0742 c 0,-0.5199 0.031,-0.9668 0.12,-1.3496 0.325,-1.5762 1.189,-2.366 2.578,-2.366 2.26,0 4.839,1.4808 7.766,4.4437 l 1.231,-1.0379 c -4.054,-4.4992 -7.928,-6.7468 -11.623,-6.7468 -2.554,0 -4.077,1.1687 -4.572,3.5058 -0.204,0.9762 -0.306,2.9071 -0.314,5.7879 l 0.105,16.8371 h -5.016 l -0.058,1.425 c 4.304,0.434 7.1,3.1379 8.393,8.1121 h 1.467 l -0.013,-7.255 h 7.59"
         style="fill:#003b57;fill-opacity:1;fill-rule:nonzero;stroke:none;stroke-width:0.1"
         id="path24" />
      <path
         d="m 311.427,71.2941 c 8.022,1.5489 11.606,4.3309 10.769,8.352 -0.171,0.8187 -0.694,1.566 -1.551,2.2437 -0.869,0.6801 -1.741,1.0204 -2.634,1.0204 -2.039,0 -3.708,-1.2032 -4.994,-3.6071 -1.296,-2.4062 -1.819,-5.0769 -1.59,-8.009 z m -0.046,-1.5121 c 0.068,-0.705 0.163,-1.3718 0.296,-1.9961 1.023,-4.891 3.778,-7.3371 8.26,-7.3371 3.26,0 7.576,1.9684 9.718,5.9094 l 1.086,-1.1203 c -1.343,-3.0379 -2.806,-5.2399 -4.384,-6.609 -1.574,-1.3699 -5.32,-2.0527 -8.006,-2.0527 -2.885,0 -5.277,0.8078 -7.179,2.425 -1.905,1.6179 -3.158,3.907 -3.783,6.8687 -1.062,5.0563 -0.239,9.652 2.462,13.8 2.715,4.141 6.212,6.2172 10.505,6.2172 1.689,0 4.72,-0.4312 5.884,-1.2859 1.149,-0.8551 1.882,-2.0043 2.186,-3.443 0.511,-2.4211 -2.221,-4.7082 -4.946,-6.8703 -2.727,-2.1609 -6.767,-3.6617 -12.099,-4.5059"
         style="fill:#003b57;fill-opacity:1;fill-rule:nonzero;stroke:none;stroke-width:0.1"
         id="path26" />
      <path
         d="m 99.4055,99.7609 c 0.6725,-1.1629 3.5115,-6.1371 4.0815,-7.7398 0.642,-1.8121 0.777,-2.3313 0.777,-2.3313 0,0 -1.557,8.0114 -4.112,12.6862 0.56,1.89 1.229,3.979 1.986,6.212 0.885,-1.553 2.896,-5.12 3.623,-6.81 0.027,0.319 0.054,0.638 0.082,0.954 -0.644,2.475 -1.622,5.715 -2.874,8.254 3.214,16.725 13.559,38.625 24.704,50.448 H 50.9602 c -3.7883,0 -6.8711,-3.082 -6.8711,-6.871 V 73.1789 c 17.3738,6.668 38.323,12.7633 56.3529,12.502 -0.6693,2.5812 -1.4315,4.9152 -2.2318,6.2679 -0.4122,0.6981 0.0449,3.5653 1.1953,7.8121"
         style="fill:url(#linearGradient44);fill-opacity:1;fill-rule:nonzero;stroke:none;stroke-width:0.1"
         id="path46"
         clip-path="url(#clipPath196)" />
      <path
         d="m 149.133,167.137 c -5.452,4.862 -12.053,2.909 -18.568,-2.873 -0.967,-0.859 -1.932,-1.812 -2.892,-2.83 -11.145,-11.823 -21.49,-33.723 -24.704,-50.448 1.252,-2.539 2.23,-5.779 2.874,-8.254 0.165,-0.635 0.314,-1.231 0.433,-1.738 0.283,-1.1999 0.435,-1.978 0.435,-1.978 0,0 -0.1,0.3781 -0.51,1.567 -0.078,0.228 -0.165,0.477 -0.268,0.77 -0.044,0.121 -0.105,0.268 -0.172,0.425 -0.727,1.69 -2.738,5.257 -3.623,6.81 -0.757,-2.233 -1.426,-4.322 -1.986,-6.212 2.555,-4.6748 4.112,-12.6862 4.112,-12.6862 0,0 -0.135,0.5192 -0.777,2.3313 -0.57,1.6027 -3.409,6.5769 -4.0815,7.7398 -1.1504,-4.2468 -1.6075,-7.114 -1.1953,-7.8121 0.8003,-1.3527 1.5625,-3.6867 2.2318,-6.2679 1.512,-5.8149 2.563,-12.8938 2.563,-12.8938 0,0 0.034,-0.4691 0.091,-1.191 -0.21,-4.8832 -0.084,-9.9461 0.294,-14.5223 0.501,-6.0578 1.444,-11.2617 2.646,-14.0468 l 0.816,0.4449 c -1.765,5.4871 -2.482,12.6781 -2.168,20.9711 0.475,12.6761 3.392,27.9629 8.782,43.896 9.106,24.052 21.74,43.35 33.303,52.566 -10.539,-9.518 -24.803,-40.327 -29.073,-51.736 -4.781,-12.776 -8.169,-24.7651 -10.211,-36.2518 3.523,10.7687 14.914,15.3976 14.914,15.3976 0,0 5.587,6.8903 12.116,16.7342 -3.911,-0.892 -10.333,-2.419 -12.484,-3.323 -3.173,-1.331 -4.028,-1.785 -4.028,-1.785 0,0 10.278,6.259 19.096,9.093 12.127,19.1 25.339,46.234 12.034,58.103"
         style="fill:#003b57;fill-opacity:1;fill-rule:nonzero;stroke:none;stroke-width:0.1"
         id="path48" />
    </g>
  </g>
</svg>
